<?xml version="1.0" encoding="utf-8"?>
<!-- Generator: Adobe Illustrator 16.0.0, SVG Export Plug-In . SVG Version: 6.00 Build 0)  -->
<!DOCTYPE svg PUBLIC "-//W3C//DTD SVG 1.1//EN" "http://www.w3.org/Graphics/SVG/1.1/DTD/svg11.dtd">
<svg version="1.1" id="Layer_1" xmlns="http://www.w3.org/2000/svg" xmlns:xlink="http://www.w3.org/1999/xlink" x="0px" y="0px"
	 width="540px" height="170px" viewBox="0 0 540 170" enable-background="new 0 0 540 170" xml:space="preserve">
<linearGradient id="SVGID_1_" gradientUnits="userSpaceOnUse" x1="70.4858" y1="29.3574" x2="70.5408" y2="116.5108">
	<stop  offset="0.0028" style="stop-color:#00957F"/>
	<stop  offset="0.7278" style="stop-color:#004768"/>
</linearGradient>
<path opacity="0.9" fill="url(#SVGID_1_)" d="M55.146,25.183l-8.001-7.856c-1.066-0.91-2.646-0.871-3.667,0.089L6.213,52.485
	c-0.551,0.519-0.864,1.243-0.864,2v52.697c0,1.518,1.229,2.747,2.747,2.747h16.092c0,0-6.587-20.896,8.247-32.507
	c11.954-9.356,27.697-11.93,38.078-14.301c9.897-2.26,24.17-5.222,6.165-17.887c0,0,21.312,7.325,21.312,16.331
	c0,10.636-24.687,10.324-24.687,23.377c0,14.115,13.572,24.958,13.572,24.958l29.794,0.03c1.517,0,2.826-0.762,3.468-2.747
	l15.54-71.011c0-0.935-13.663,1.499-14.45,0.993L80.139,5.282c-1.032-0.662-2.376-0.559-3.296,0.249L55.146,25.183z"/>
<g>
	<path fill="#00A79D" d="M164.218,35.04c10.007,0,12.769,5.275,12.769,12.079c0,3.155-0.592,6.508-1.33,10.008l-6.755,30.764
		c-2.514,11.043-6.704,22.038-21.199,22.038h-15.579L148.64,35.04H164.218z M153.175,40.562l-14.1,63.894h9.663h0.197
		c7.642,0,11.685-4.634,14.297-16.614l6.704-30.666c0.74-3.401,1.135-6.212,1.135-8.43c0-5.522-2.268-7.987-7.395-8.184h-0.148
		h-0.543H153.175z"/>
	<path fill="#00A79D" d="M175.653,109.928L192.12,35.04h15.334c9.07,0,13.213,3.008,13.213,10.847c0,2.317-0.346,5.078-1.086,8.282
		l-1.527,7.1c-1.578,7.148-6.459,12.769-12.918,15.48c3.354,2.416,4.732,5.423,4.732,10.402c0,1.134-0.049,2.268-0.197,3.599
		l-1.182,10.945c-0.051,0.74-0.1,1.43-0.1,2.169c0,2.218,0.297,4.289,0.691,6.064h-6.113c-0.346-1.38-0.494-3.106-0.494-5.078
		c0-0.937,0.049-1.972,0.148-3.007l1.184-10.896c0.098-0.838,0.146-1.578,0.146-2.317c0-7.05-3.943-10.254-7.543-10.254h-8.035
		l-6.902,31.553H175.653z M213.813,54.07c0.592-2.613,0.838-4.733,0.838-6.458c0-6.261-3.6-7.05-8.332-7.05h-9.613l-7.148,32.341
		h9.465c6.508,0,11.734-5.176,13.164-11.635L213.813,54.07z"/>
	<path fill="#00A79D" d="M217.362,109.928l16.467-74.938h5.867l-16.516,74.938H217.362z"/>
	<path fill="#00A79D" d="M248.665,34.941h5.916l-1.922,69.613h0.543l28.643-69.613h5.916l-31.553,74.987h-8.922L248.665,34.941z"/>
	<path fill="#00A79D" d="M278.048,109.928l16.467-74.889l27.855-0.049l-1.232,5.522l-22.088,0.049l-6.162,28.102h18.635
		l-1.182,5.423h-18.637l-6.705,30.369h22.037l-1.182,5.473H278.048z"/>
	<path fill="#00A79D" d="M367.677,88.137l-0.346,1.528c-1.775,9.318-6.211,21.051-21.002,21.051
		c-10.057,0-12.818-5.423-12.818-12.128c0-3.353,0.641-6.804,1.381-10.304l6.951-31.602c2.367-10.797,6.508-22.481,21.248-22.481
		h0.051c10.254,0,13.014,5.669,13.014,12.079c0,3.007-0.541,6.113-1.281,8.924l-0.346,1.528h-5.768l0.346-1.479
		c0.738-2.761,1.184-5.325,1.184-7.642c0-4.684-2.021-7.986-8.332-7.986c-9.418,0-12.129,7.444-14.248,17.157l-6.951,31.405
		c-0.74,3.353-1.332,6.458-1.332,9.219c0,4.684,1.824,7.839,8.086,7.839c9.021,0,12.178-6.754,14.002-15.628l0.295-1.479H367.677z"
		/>
	<path fill="#00A79D" d="M373.542,109.928l16.516-74.938h5.768l-15.283,69.416h21.496l-1.184,5.522H373.542z"/>
	<path fill="#00A79D" d="M408.149,109.928l16.467-74.889l27.855-0.049l-1.232,5.522l-22.088,0.049l-6.162,28.102h18.635
		l-1.182,5.423h-18.637l-6.705,30.369h22.037l-1.182,5.473H408.149z"/>
	<path fill="#00A79D" d="M469.726,34.941h8.922l-1.773,74.987h-5.916l0.59-18.044h-19.77l-7.295,18.044h-5.918L469.726,34.941z
		 M453.948,86.609h17.797l1.529-46.294h-0.543L453.948,86.609z"/>
	<path fill="#00A79D" d="M484.71,109.928l16.518-74.938h9.219l3.549,69.515l15.137-69.515h5.768l-16.17,74.938h-9.072l-4.191-68.874
		l-14.889,68.874H484.71z"/>
</g>
<g>
	<path fill="#004768" d="M186.354,156.813l6.438-29.199h2.818l-6.414,29.199H186.354z M196.169,118.626
		c1.141,0,1.578,0.461,1.578,1.214c0,1.093-0.51,1.992-2.283,1.992c-0.996,0-1.482-0.413-1.482-1.215
		C193.981,119.477,194.638,118.626,196.169,118.626z"/>
	<path fill="#004768" d="M208.364,156.813l4.057-18.365c0.412-1.871,0.85-3.692,0.85-5.174c0-2.041-0.801-3.401-3.619-3.401
		c-4.445,0-6.121,4.834-7.166,9.62l-3.814,17.32h-2.842l6.414-29.199h2.842l-0.826,3.692c1.313-2.234,3.74-4.081,6.729-4.081
		c4.082,0,5.223,2.162,5.223,5.004c0,1.943-0.51,4.105-0.971,6.219l-4.033,18.365H208.364z"/>
	<path fill="#004768" d="M238.95,118.068l-2.09,9.498h6.049l-0.533,2.599h-6.098l-3.814,17.345
		c-0.486,2.162-0.801,3.741-0.801,4.834c0,1.627,0.68,2.21,2.623,2.21c1.529,0,3.037-0.51,3.74-0.826l-0.193,2.38
		c-0.826,0.461-2.479,1.118-4.275,1.118c-3.596,0-4.785-1.458-4.785-4.178c0-1.482,0.363-3.328,0.85-5.539l3.789-17.345h-2.914
		l0.559-2.599h2.939l2.088-9.498H238.95z"/>
	<path fill="#004768" d="M254.255,156.813l4.057-18.365c0.412-1.822,0.777-3.498,0.777-4.956c0-2.138-0.85-3.62-3.74-3.62
		c-4.471,0-5.928,4.834-6.973,9.62l-3.814,17.32h-2.842l8.381-38.065h2.818l-2.697,12.364c1.24-2.259,3.305-3.887,6.293-3.887
		c4.299,0,5.488,2.332,5.488,5.345c0,1.846-0.412,3.935-0.873,5.878l-4.033,18.365H254.255z"/>
	<path fill="#004768" d="M279.909,146.951l-0.098,0.485c-0.973,4.567-2.502,9.766-9.814,9.766c-4.762,0-6.072-2.502-6.072-5.636
		c0-1.773,0.412-3.741,0.826-5.587l1.65-7.506c1.166-5.344,2.818-11.271,10.18-11.271c4.93,0,6.145,2.478,6.145,5.344
		c0,1.481-0.291,3.109-0.656,4.591l-0.873,3.984h-0.025l-0.096,0.51l-13.045,2.065l-0.486,2.259
		c-0.389,1.822-0.777,3.498-0.777,4.956c0,2.138,0.85,3.62,3.766,3.62h0.072c4.566,0,5.49-3.158,6.389-7.118l0.098-0.461H279.909z
		 M269.196,138.497l-0.607,2.697l10.129-1.652l0.535-2.405c0.291-1.384,0.607-2.745,0.607-3.911c0-1.943-0.852-3.353-3.887-3.353
		C271.333,129.874,270.216,133.712,269.196,138.497z"/>
	<path fill="#004768" d="M309.206,147.729c-1.238,5.903-4.348,9.474-10.082,9.474c-5.053,0-6.51-2.016-6.51-5.198
		c0-1.336,0.244-2.794,0.607-4.446l0.316-1.482h2.842l-0.291,1.312c-0.365,1.458-0.535,2.696-0.535,3.692
		c0,2.332,1.094,3.425,4.131,3.425c3.887,0,5.877-2.818,6.654-6.705l0.049-0.292c0.17-0.802,0.244-1.579,0.244-2.284
		c0-2.332-0.924-3.741-2.77-4.98l-3.086-2.064c-2.404-1.628-3.619-3.401-3.619-6.146c0-1.02,0.146-2.162,0.461-3.401l0.098-0.438
		c1.287-5.441,4.615-8.696,9.789-8.696c4.422,0,6.244,2.283,6.244,5.83c0,0.947-0.121,1.968-0.365,3.061l-0.461,2.211h-2.842
		l0.582-2.939c0.121-0.51,0.17-1.044,0.17-1.604c0-2.234-1.117-3.887-3.91-3.887c-3.814,0-5.807,2.988-6.438,6.535l-0.17,0.85
		c-0.072,0.462-0.121,0.851-0.121,1.239c0,2.162,1.141,3.838,2.914,5.004l3.061,2.017c2.406,1.579,3.449,3.668,3.449,6.486
		c0,0.923-0.096,1.895-0.314,2.891L309.206,147.729z"/>
	<path fill="#004768" d="M323.856,156.813l0.68-3.134c-1.24,2.113-3.037,3.547-6.025,3.547c-4.445,0-5.635-2.356-5.635-5.393
		c0-1.846,0.438-3.911,0.85-5.854l1.627-7.506c1.264-5.708,2.721-11.248,9.717-11.248h0.025c2.914,0,4.154,1.506,4.469,3.62
		l0.705-3.231h2.842l-6.438,29.199H323.856z M326.14,146.392l1.48-6.68l0.074-0.364c0.412-1.943,0.873-3.911,0.873-5.587
		c0-2.259-0.824-3.911-3.619-3.911c-4.639,0-5.879,4.396-6.777,8.647l-1.627,7.482c-0.461,2.138-0.898,3.935-0.898,5.393
		c0,2.041,0.898,3.231,3.74,3.231C323.589,154.603,325.118,150.716,326.14,146.392z"/>
	<path fill="#004768" d="M345.769,156.813l4.057-18.365c0.412-1.871,0.85-3.692,0.85-5.174c0-2.041-0.801-3.401-3.619-3.401
		c-4.445,0-6.121,4.834-7.166,9.62l-3.814,17.32h-2.842l6.414-29.199h2.842l-0.826,3.692c1.313-2.234,3.74-4.081,6.729-4.081
		c4.082,0,5.223,2.162,5.223,5.004c0,1.943-0.51,4.105-0.971,6.219l-4.033,18.365H345.769z"/>
	<path fill="#004768" d="M372.054,119.914h8.795l-6.098,27.693c-1.238,5.465-2.648,9.571-9.4,9.571c-2.041,0-3.135-0.315-4.01-1.19
		l1.531-2.356c0.777,0.583,1.408,0.85,2.988,0.85h0.072h0.072c3.426,0,4.689-1.263,5.977-7.093l5.441-24.753h-5.977L372.054,119.914
		z"/>
	<path fill="#004768" d="M382.063,138.473c1.166-5.369,2.867-11.271,10.178-11.271c4.738,0,6.025,2.502,6.025,5.636
		c0,1.773-0.414,3.741-0.826,5.611l-1.627,7.482c-1.166,5.369-2.867,11.271-10.154,11.271h-0.025c-4.762,0-6.023-2.526-6.023-5.636
		c0-1.773,0.389-3.741,0.801-5.587L382.063,138.473z M384.882,138.521l-1.652,7.434c-0.389,1.822-0.777,3.522-0.777,4.979
		c0,2.162,0.85,3.596,3.766,3.596c4.688,0,5.635-3.814,6.729-8.6l1.652-7.482c0.412-1.846,0.801-3.546,0.801-5.004
		c0-2.138-0.85-3.571-3.74-3.571C387.019,129.874,385.925,133.712,384.882,138.521z"/>
	<path fill="#004768" d="M410.802,156.813l0.68-3.134c-1.238,2.113-3.035,3.547-6.023,3.547c-4.445,0-5.637-2.356-5.637-5.393
		c0-1.846,0.438-3.911,0.852-5.854l1.627-7.506c1.264-5.708,2.721-11.248,9.717-11.248h0.023c2.916,0,4.154,1.506,4.471,3.62
		l0.705-3.231h2.842l-6.438,29.199H410.802z M413.085,146.392l1.482-6.68l0.072-0.364c0.414-1.943,0.875-3.911,0.875-5.587
		c0-2.259-0.826-3.911-3.619-3.911c-4.641,0-5.879,4.396-6.777,8.647l-1.629,7.482c-0.461,2.138-0.898,3.935-0.898,5.393
		c0,2.041,0.898,3.231,3.742,3.231C410.534,154.603,412.065,150.716,413.085,146.392z"/>
	<path fill="#004768" d="M429.8,165.68l2.695-12.268c-1.287,2.235-3.084,3.814-6.072,3.814h-0.023c-4.471,0-5.66-2.429-5.66-5.441
		c0-1.846,0.412-3.887,0.873-5.83l1.629-7.482c1.166-5.32,2.744-11.248,9.717-11.248h0.023c2.988,0,4.131,1.555,4.445,3.741
		l0.754-3.353h2.842l-8.404,38.066H429.8z M433.905,147.024l2.041-9.255c0.291-1.385,0.51-2.721,0.51-3.959
		c0-2.259-0.803-3.936-3.619-3.936c-4.641,0-5.734,3.863-6.754,8.624l-1.627,7.482c-0.414,1.846-0.777,3.546-0.777,5.004
		c0,2.138,0.801,3.571,3.717,3.571C431.403,154.554,432.86,151.056,433.905,147.024z"/>
	<path fill="#004768" d="M459.972,127.614h2.818l-6.414,29.199h-2.818l0.754-3.474c-1.264,2.259-3.109,3.862-6.098,3.862
		c-4.469,0-5.66-2.405-5.66-5.417c0-1.846,0.389-3.862,0.852-5.806l4.031-18.365h2.842l-4.057,18.365
		c-0.389,1.822-0.777,3.522-0.777,4.979c0,2.162,0.852,3.595,3.766,3.595c4.689,0,5.855-4.737,6.947-9.522l0.584-2.769l0.461-2.113
		l0.729,0.291l-0.85,3.863c-0.631,2.891-1.287,6.389-2.77,9.037l1.531-6.948l0.898-4.129l0.461-2.113L459.972,127.614z"/>
	<path fill="#004768" d="M463.083,156.813l6.438-29.199h2.816l-6.412,29.199H463.083z M472.896,118.626
		c1.143,0,1.58,0.461,1.58,1.214c0,1.093-0.51,1.992-2.283,1.992c-0.996,0-1.482-0.413-1.482-1.215
		C470.71,119.477,471.366,118.626,472.896,118.626z"/>
	<path fill="#004768" d="M485.091,156.813l4.057-18.365c0.414-1.871,0.852-3.692,0.852-5.174c0-2.041-0.803-3.401-3.619-3.401
		c-4.447,0-6.123,4.834-7.168,9.62l-3.813,17.32h-2.842l6.412-29.199h2.842l-0.826,3.692c1.313-2.234,3.742-4.081,6.73-4.081
		c4.08,0,5.223,2.162,5.223,5.004c0,1.943-0.512,4.105-0.973,6.219l-4.031,18.365H485.091z"/>
</g>
<g>
	<path fill="#004768" d="M51.057,101.313l-3.704-0.007c0.833,3.536,2.076,6.405,3.156,8.622h4.806
		c-0.678-1.062-1.452-2.377-2.256-3.928C52.36,104.63,51.654,103.057,51.057,101.313z"/>
	<path fill="#004768" d="M50.113,89.928l-2.862-0.323c-0.41,1.384-0.663,2.782-0.735,4.159c-0.062,1.054-0.024,2.089,0.072,3.097
		l3.358,0.006c-0.145-0.97-0.242-1.966-0.247-2.995C49.687,92.583,49.82,91.254,50.113,89.928z"/>
	<path fill="#01475C" d="M52.713,80.497c-1.562,1.582-2.905,3.358-3.907,5.286c-0.037,0.071-0.069,0.144-0.106,0.215l2.669,0.302
		c0.877-1.85,2.1-3.603,3.569-5.194L52.713,80.497z"/>
	<path fill="#005366" d="M59.412,75.36c-1.536,0.929-3.018,1.947-4.401,3.081l2.118,0.579c1.365-1.17,2.842-2.242,4.389-3.221
		L59.412,75.36z"/>
	<path fill="#005366" d="M65.657,72.147c-1.306,0.582-2.603,1.2-3.878,1.867c-0.013,0.007-0.026,0.015-0.04,0.022l2.035,0.424
		c1.291-0.734,2.547-1.404,3.789-2.031L65.657,72.147z"/>
	<path fill="#005366" d="M71.128,69.934c-0.415,0.155-0.825,0.296-1.24,0.457c-0.616,0.239-1.233,0.486-1.849,0.739l1.683,0.249
		c0.919-0.433,1.84-0.842,2.765-1.244L71.128,69.934z"/>
	<path fill="#005366" d="M75.891,68.212c-0.973,0.347-1.954,0.696-2.943,1.051l1.176,0.174c0.847-0.352,1.709-0.696,2.582-1.039
		L75.891,68.212z"/>
	<path fill="#006060" d="M79.931,66.715c-0.652,0.259-1.313,0.513-1.982,0.76c-0.255,0.092-0.518,0.185-0.775,0.277l0.749,0.171
		c0.058-0.022,0.113-0.044,0.17-0.066c0.831-0.329,1.644-0.665,2.447-1.003L79.931,66.715z"/>
	<path fill="#006060" d="M82.706,65.548c-0.678,0.296-1.363,0.589-2.064,0.875l0.592,0.135c0.68-0.292,1.349-0.588,2.007-0.889
		L82.706,65.548z"/>
	<path fill="#006060" d="M85.271,64.383c-0.6,0.285-1.22,0.566-1.845,0.846l0.508,0.115c0.507-0.236,1.015-0.473,1.506-0.716
		c0.092-0.047,0.179-0.098,0.271-0.145L85.271,64.383z"/>
	<path fill="#006060" d="M87.088,63.431c-0.447,0.249-0.906,0.489-1.373,0.725l0.427,0.097c0.451-0.239,0.896-0.482,1.328-0.735
		L87.088,63.431z"/>
	<path fill="#006060" d="M88.498,62.575c-0.323,0.216-0.666,0.417-1.01,0.618l0.365,0.083c0.274-0.168,0.553-0.333,0.813-0.514
		c0.051-0.037,0.101-0.077,0.152-0.114L88.498,62.575z"/>
	<path fill="#268888" d="M89.578,61.74c-0.235,0.203-0.48,0.399-0.736,0.585l0.309,0.07c0.25-0.192,0.488-0.396,0.716-0.606
		L89.578,61.74z"/>
	<path fill="#268888" d="M90.47,60.801c-0.176,0.234-0.374,0.456-0.592,0.665l0.275,0.047c0.208-0.215,0.393-0.445,0.56-0.688
		L90.47,60.801z"/>
	<path fill="#268888" d="M91.017,59.733c-0.046,0.139-0.08,0.28-0.145,0.414c-0.058,0.125-0.144,0.234-0.216,0.351l0.234,0.023
		c0.055-0.097,0.122-0.186,0.168-0.288c0.076-0.161,0.116-0.329,0.166-0.495L91.017,59.733z"/>
	<path fill="#268888" d="M91.214,58.622c-0.004,0.265-0.025,0.531-0.086,0.794l0.201,0.006c0.056-0.27,0.073-0.541,0.072-0.811
		L91.214,58.622z"/>
	<path fill="#268888" d="M91.069,57.501c0.07,0.259,0.124,0.524,0.142,0.799l0.181-0.01c-0.022-0.273-0.077-0.537-0.146-0.794
		L91.069,57.501z"/>
	<path fill="#268888" d="M90.833,56.487h-0.175c0.109,0.204,0.21,0.415,0.299,0.634c0.008,0.02,0.011,0.042,0.019,0.062l0.173-0.005
		c-0.014-0.038-0.021-0.08-0.036-0.117C91.028,56.861,90.932,56.673,90.833,56.487z"/>
	<path fill="#268888" d="M90.097,55.618c0.127,0.179,0.255,0.357,0.37,0.548h0.181c-0.116-0.193-0.246-0.369-0.374-0.548H90.097z"/>
	<path fill="#268888" d="M89.462,54.805c0.136,0.158,0.271,0.322,0.402,0.492l0.181,0c-0.133-0.172-0.272-0.333-0.411-0.492
		L89.462,54.805z"/>
	<path fill="#00A79D" d="M88.855,54.169c0.129,0.133,0.257,0.257,0.386,0.396h0.18c-0.132-0.14-0.261-0.263-0.393-0.396
		L88.855,54.169z"/>
	<path fill="#00A79D" d="M88.209,53.529c0.137,0.133,0.273,0.262,0.412,0.401h0.17c-0.142-0.14-0.28-0.269-0.419-0.401H88.209z"/>
	<path fill="#00A79D" d="M87.588,52.943c0.126,0.117,0.246,0.223,0.375,0.346l0.159,0c-0.132-0.124-0.254-0.229-0.384-0.346H87.588z
		"/>
	<path fill="#00A79D" d="M86.939,52.35c0.129,0.118,0.256,0.232,0.39,0.354h0.145c-0.137-0.123-0.268-0.237-0.401-0.354H86.939z"/>
	<path fill="#00A79D" d="M86.269,51.74c0.134,0.122,0.264,0.241,0.406,0.37h0.125c-0.148-0.13-0.285-0.248-0.426-0.37L86.269,51.74z
		"/>
	<path fill="#00A79D" d="M85.682,51.177h-0.082c0.133,0.106,0.263,0.207,0.402,0.323h0.096c-0.008-0.007-0.017-0.015-0.025-0.021
		C85.938,51.371,85.813,51.277,85.682,51.177z"/>
	<path fill="#00A79D" d="M84.88,50.619c0.137,0.102,0.276,0.206,0.422,0.319h0.069c-0.151-0.113-0.294-0.217-0.435-0.319H84.88z"/>
	<path fill="#00A79D" d="M84.155,50.098c0.127,0.089,0.255,0.18,0.396,0.281l0.05,0c-0.149-0.105-0.286-0.199-0.42-0.291
		L84.155,50.098z"/>
	<g>
		<g>
			<path fill="#00A79D" d="M83.26,49.472c-0.339-0.222-0.518-0.339-0.518-0.339s0.175,0.118,0.508,0.343L83.26,49.472z"/>
			<path fill="#00A79D" d="M83.507,49.633l-0.014,0.005c0.046,0.031,0.083,0.056,0.132,0.089c0.088,0.061,0.192,0.134,0.293,0.204
				l0.022-0.008c-0.106-0.072-0.216-0.146-0.308-0.208C83.585,49.685,83.551,49.663,83.507,49.633z"/>
		</g>
	</g>
</g>
</svg>
